# xmcd CD database file generated by OrangeCD 5.2
#
# Track frame offsets:
#	150
#	15722
#	33969
#	53908
#	68658
#	82854
#	99126
#	112270
#	131875
#	152427
#	171328
#	187008
#
# Disc length: 2714 seconds
#
# Revision: 5
# Processed by: cddbd v1.5.1PL2 Copyright (c) Steve Scherf et al.
# Submitted via: OrangeCD 5.2
#
DISCID=960a980c
DTITLE=Diana Krall - Christmas Songs
DYEAR=2005
DGENRE=Christmas
TTITLE0=Jingle Bells
TTITLE1=Let It Snow
TTITLE2=The Christmas Song
TTITLE3=Winter Wonderland
TTITLE4=I'll Be Home for Christmas
TTITLE5=Christmas Time Is Here
TTITLE6=Santa Claus Is Coming to Town
TTITLE7=Have Yourself a Merry Little Christmas
TTITLE8=White Christmas
TTITLE9=What Are You Doing New Year's Eve
TTITLE10=Sleigh Ride
TTITLE11=Count Your Blessings Instead of Sheep
EXTD=
EXTT0=
EXTT1=
EXTT2=
EXTT3=
EXTT4=
EXTT5=
EXTT6=
EXTT7=
EXTT8=
EXTT9=
EXTT10=
EXTT11=
PLAYORDER=
